<?xml version="1.0" encoding="utf-8"?>
<!-- Generator: Adobe Illustrator 17.1.0, SVG Export Plug-In . SVG Version: 6.00 Build 0)  -->
<!DOCTYPE svg PUBLIC "-//W3C//DTD SVG 1.1//EN" "http://www.w3.org/Graphics/SVG/1.1/DTD/svg11.dtd">
<svg version="1.1" id="Layer_1" xmlns="http://www.w3.org/2000/svg" xmlns:xlink="http://www.w3.org/1999/xlink" x="0px" y="0px"
	 viewBox="0 0 504 252" enable-background="new 0 0 504 252" xml:space="preserve">
<g>
	<path fill="#0064A4" stroke="#0064A4" stroke-width="3" stroke-miterlimit="10" d="M393.1,109.9c-9.6,0-17.4,4.5-17.4,10
		c0,5.5,7.8,10,17.4,10c9.6,0,17.4-4.5,17.4-10C410.5,114.4,402.7,109.9,393.1,109.9z M393.1,127.8c-8.1,0-15.3-3.7-15.3-7.9
		c0-4.2,7.1-7.9,15.3-7.9c8.1,0,15.3,3.7,15.3,7.9C408.4,124.1,401.2,127.8,393.1,127.8z"/>
	<path fill="#888A8C" d="M334.1,124.3h-21.3c-0.9,0-1.6,0.2-2,0.6c-0.4,0.4-0.6,1-0.6,1.8c0,1.1,0.3,2.4,0.8,3.7h5.2
		c-0.5,5.2-3.1,16.8-8,34.8c-4.9,18-7.6,27.1-8.1,27.1c-0.5,0-3.6-9.1-9.1-27.2c-4.7-15.5-7.8-26.1-9.3-32c-5.5,0-10.2,0-15.6,0
		c2.8,7.1,7.2,20.1,13.3,39c7,21.5,10.7,32.4,11.2,32.7c0.5,0.3,3,0.5,7.5,0.5c3.9,0,6.6-1.2,8.1-3.7c1.5-2.5,5.2-13.2,11.1-32.1
		c5.9-18.9,10-31.9,12.4-39h2.7c1,0,1.7-0.2,2.1-0.6c0.4-0.4,0.6-1.1,0.6-2.1C334.8,126.6,334.6,125.5,334.1,124.3z"/>
	<path fill="#888A8C" d="M363.8,198.3h6.2c0.5,1,0.8,2.1,0.8,3.3c0,1.1-0.2,1.8-0.6,2.2c-0.4,0.4-1.3,0.6-2.5,0.6h-23
		c-0.5-1.2-0.7-2.4-0.7-3.5c0-0.9,0.2-1.5,0.6-1.9c0.4-0.4,1.1-0.6,2.1-0.6h4.3c0.3-5.4,0.4-11.8,0.4-19.1c0-8.9-0.1-14.9-0.2-17.8
		c-0.1-3-0.5-5-1-6.2c-0.5-1.1-1.2-1.8-2.1-2.1c-0.9-0.3-2.1-0.4-3.4-0.4c-0.5-0.8-0.8-1.8-0.8-2.9c0-1.6,0.8-2.6,2.3-2.9
		c1.5-0.4,4.5-0.5,8.8-0.5c3.1,0,5.2,0.1,6.3,0.4c1.1,0.3,1.7,0.8,1.9,1.6c0.2,0.8,0.2,2.2,0.2,4.1v26.7
		C363.4,186.5,363.5,192.8,363.8,198.3z"/>
	<path fill="#888A8C" d="M426.4,150.2c0,1.7-0.9,3.9-2.8,6.7c-1.9,2.8-4.6,6.9-8.3,12.5c-3.7,5.6-7.3,11.2-10.8,16.8
		c-3.5,5.6-5.3,9.4-5.5,11.5h10.6c4.8,0,10.6-1.3,17.4-4c1,2,1.5,4.1,1.5,6.2c0,1.6-0.5,2.7-1.5,3.4c-1,0.7-3,1-5.9,1H385
		c-2.5,0-3.8-1.1-3.8-3.2c0-1.2,0.5-2.5,1.5-4.1c1-1.5,4.3-6.2,9.7-13.9c5.5-7.7,9.6-13.9,12.4-18.5c2.8-4.6,4.8-8.3,5.9-11.2h-14.4
		c-2.6,0-6.8,1.4-12.5,4.3c-1.6-2.3-2.5-4.7-2.5-7c0-1.4,0.4-2.4,1.2-3c0.8-0.6,2.2-0.9,4.4-0.9h34.9c1.6,0,2.8,0.2,3.5,0.7
		C426,148.1,426.4,149,426.4,150.2z"/>
	<linearGradient id="SVGID_1_" gradientUnits="userSpaceOnUse" x1="223.8821" y1="185.4572" x2="132.9104" y2="27.8896">
		<stop  offset="0" style="stop-color:#0064A4"/>
		<stop  offset="1" style="stop-color:#009DDC"/>
	</linearGradient>
	<path fill="url(#SVGID_1_)" d="M105.3,65c5.5,0,10.6,0.9,15.3,2.6c4.7,1.8,8.8,4.4,12.2,7.9c3.4,3.5,6.1,7.9,8.1,13.2
		c1.9,5.3,2.9,11.5,2.9,18.6c0,6.2-0.8,12-2.4,17.3c-1.6,5.3-4,9.8-7.2,13.7c-3.2,3.8-7.2,6.9-12,9.1c-4.8,2.2-10.4,3.3-16.9,3.3
		H68.7V65H105.3z M104,134.8c2.7,0,5.3-0.4,7.8-1.3c2.5-0.9,4.8-2.3,6.8-4.4c2-2,3.6-4.7,4.8-8c1.2-3.3,1.8-7.3,1.8-12
		c0-4.3-0.4-8.2-1.2-11.7c-0.8-3.5-2.2-6.5-4.1-8.9c-1.9-2.5-4.4-4.4-7.5-5.7c-3.1-1.3-7-2-11.6-2H87.3v54H104z M171.1,65l35.4,57.5
		h0.2V65h17.5v85.7h-18.7l-35.3-57.4H170v57.4h-17.5V65H171.1z M250.7,129.5c1,2,2.4,3.6,4.1,4.9c1.7,1.2,3.7,2.2,6,2.8
		c2.3,0.6,4.7,0.9,7.1,0.9c1.7,0,3.4-0.1,5.3-0.4c1.9-0.3,3.7-0.8,5.3-1.6c1.7-0.8,3-1.9,4.2-3.3c1.1-1.4,1.7-3.2,1.7-5.3
		c0-2.3-0.7-4.2-2.2-5.6c-1.5-1.4-3.4-2.6-5.8-3.6c-2.4-1-5.1-1.8-8.1-2.5c-3-0.7-6.1-1.5-9.1-2.4c-3.2-0.8-6.3-1.8-9.3-2.9
		c-3-1.2-5.7-2.7-8.1-4.5c-2.4-1.8-4.3-4.1-5.8-6.9c-1.5-2.8-2.2-6.1-2.2-10c0-4.4,0.9-8.2,2.8-11.5c1.9-3.2,4.3-5.9,7.3-8.1
		c3-2.2,6.4-3.8,10.2-4.8c3.8-1,7.6-1.6,11.4-1.6c4.4,0,8.7,0.5,12.8,1.5c4.1,1,7.7,2.6,10.9,4.9c3.2,2.2,5.7,5.1,7.5,8.6
		c1.9,3.5,2.8,7.7,2.8,12.7h-18.1c-0.2-2.6-0.7-4.7-1.6-6.4c-0.9-1.7-2.1-3-3.6-4c-1.5-1-3.2-1.6-5.2-2c-1.9-0.4-4.1-0.6-6.4-0.6
		c-1.5,0-3,0.2-4.5,0.5c-1.5,0.3-2.9,0.9-4.1,1.7c-1.2,0.8-2.2,1.8-3,3c-0.8,1.2-1.2,2.7-1.2,4.6c0,1.7,0.3,3,1,4.1
		c0.6,1,1.9,2,3.7,2.9c1.9,0.9,4.4,1.8,7.7,2.6c3.3,0.9,7.6,2,12.9,3.4c1.6,0.3,3.8,0.9,6.6,1.7c2.8,0.8,5.6,2.2,8.4,4
		c2.8,1.8,5.2,4.3,7.2,7.4c2,3.1,3,7,3,11.8c0,3.9-0.8,7.6-2.3,10.9c-1.5,3.4-3.7,6.3-6.7,8.7c-3,2.4-6.7,4.3-11,5.7
		c-4.4,1.4-9.5,2-15.3,2c-4.7,0-9.2-0.6-13.6-1.7c-4.4-1.2-8.3-3-11.6-5.5c-3.4-2.5-6-5.6-8-9.5c-2-3.8-2.9-8.4-2.9-13.7h18.1
		C249.2,125.1,249.7,127.5,250.7,129.5z"/>
	<path fill="#0064A4" stroke="#0064A4" stroke-width="3" stroke-miterlimit="10" d="M354.6,122.9c-9.6,0-17.4,4.5-17.4,10
		c0,5.5,7.8,10,17.4,10c9.6,0,17.4-4.5,17.4-10C372,127.4,364.2,122.9,354.6,122.9z M354.6,140.9c-8.1,0-15.3-3.7-15.3-7.9
		c0-4.2,7.1-7.9,15.3-7.9c8.1,0,15.3,3.7,15.3,7.9C369.9,137.2,362.7,140.9,354.6,140.9z"/>
	<path fill="#888A8C" d="M354.6,137.7c-7.1,0-12.1-3.1-12.1-4.8s5-4.8,12.1-4.8c7.1,0,12.1,3.1,12.1,4.8S361.7,137.7,354.6,137.7z"
		/>
	<polygon fill="#888A8C" points="355.2,115.7 355.2,108.8 353.6,108.8 353.6,115.7 350.1,115.7 352.3,119.4 354.4,123.2 
		356.6,119.4 358.8,115.7 	"/>
	<polygon fill="#888A8C" points="378.7,110.4 377.6,106.2 375.1,108.7 370.2,103.8 369.1,104.9 374,109.8 371.5,112.3 375.7,113.4 
		379.9,114.5 	"/>
	<path fill="#0064A4" stroke="#0064A4" stroke-width="3" stroke-miterlimit="10" d="M354.6,89.4c-9.6,0-17.4,4.5-17.4,10
		c0,5.5,7.8,10,17.4,10c9.6,0,17.4-4.5,17.4-10C372,93.8,364.2,89.4,354.6,89.4z M354.6,107.3c-8.1,0-15.3-3.7-15.3-7.9
		c0-4.2,7.1-7.9,15.3-7.9c8.1,0,15.3,3.7,15.3,7.9C369.9,103.6,362.7,107.3,354.6,107.3z"/>
	<path fill="#888A8C" d="M280.9,130.4h2.9c1,0,1.7-0.2,2.1-0.6c0.4-0.4,0.6-1.1,0.6-2.1c0-1.1-0.3-2.2-0.8-3.4h-23.6
		c-0.9,0-1.6,0.2-2,0.6c-0.4,0.4-0.6,1-0.6,1.8c0,1.1,0.3,2.4,0.8,3.7h4.6c0.3,0.8,0.7,1.6,1.1,2.6c5.4,0,10.1,0,15.6,0
		C281.3,132,281.1,131.1,280.9,130.4z"/>
	<polygon fill="#888A8C" points="355.2,82.1 355.2,75.2 353.6,75.2 353.6,82.1 350.1,82.1 352.3,85.9 354.4,89.6 356.6,85.9 
		358.8,82.1 	"/>
	<path fill="#0064A4" stroke="#0064A4" stroke-width="3" stroke-miterlimit="10" d="M354.6,55.8c-9.6,0-17.4,4.5-17.4,10
		s7.8,10,17.4,10c9.6,0,17.4-4.5,17.4-10S364.2,55.8,354.6,55.8z M354.6,73.7c-8.1,0-15.3-3.7-15.3-7.9c0-4.2,7.1-7.9,15.3-7.9
		c8.1,0,15.3,3.7,15.3,7.9C369.9,70,362.7,73.7,354.6,73.7z"/>
</g>
</svg>
