<?xml version="1.0"?>
<svg xmlns="http://www.w3.org/2000/svg" width="380" height="330">
<defs>
<filter id="a">
<feGaussianBlur stdDeviation="5.092"/>
</filter>
<linearGradient id="SVGID_1_" y2="-26.38" gradientUnits="userSpaceOnUse" y1="335.2" gradientTransform="matrix(1 0 0 -1 -39.26 350.8)" x2="339.2" x1="4.974">
<stop stop-color="#FFB300" offset="0"/>
<stop stop-color="#f90" offset="1"/>
</linearGradient>
<linearGradient id="SVGID_2_" y2="264.2" gradientUnits="userSpaceOnUse" y1="394.5" gradientTransform="matrix(1.208 0 0 -1.208 69.67 587)" x2="82.92" x1="-1.685">
<stop stop-color="#F6EB71" offset="0"/>
<stop stop-color="#FFEB00" offset=".51"/>
<stop stop-color="#F4C930" offset="1"/>
</linearGradient>
</defs>
<path d="m198.1 9.6c-4.3 0.2-8.1 2.52-10.2 6.2l-169 291.5c-2.2 3.9-2.21 8.6.02 12.5 2.18 3.9 6.38 6.3 10.82 6.3l337 .5c4.4 0 8.6-2.4 10.8-6.2 2.3-3.9 2.3-8.7 0-12.5l-168-292.1c-2.3-4.1-6.8-6.5-11.4-6.2zm.6 37.4 146.4 254.6-293.7-.5 147.3-254.1z" fill-opacity=".8" filter="url(#a)" fill="#777"/>
<path stroke-linejoin="round" d="m184.8 3.69c-4.2.220-8 2.51-10.1 6.2l-169 291.5c-2.23 3.9-2.23 8.7-.010 12.5 2.23 3.9 6.31 6.3 10.82 6.3l336.9.5c4.5 0 8.6-2.3 10.9-6.2 2.2-3.9 2.2-8.6 0-12.5l-168-292.1c-2.3-4.04-6.8-6.5-11.5-6.21v0zm.6 37.47 146.4 254.5-293.6-.5 147.2-254z" stroke="#a37900" stroke-width="6.25px" fill="url(#SVGID_1_)"/>
<path stroke-linejoin="round" d="m353.4 308.2-336.8-.6 168.9-291.5 167.9 292.1z" stroke="url(#SVGID_2_)" stroke-width="25" fill="url(#SVGID_2_)"/>
<path d="m184.9 80c-2.6.10-5 1.6-6.3 3.9l-104.4 183.1c-1.4 2.4-1.4 5.4 0 7.8s3.9 3.9 6.7 3.9l208.2.4c2.8 0 5.3-1.5 6.7-3.9 1.4-2.5 1.4-5.5 0-7.9l-103.8-183.4c-1.5-2.6-4.2-4.1-7.1-3.9z" fill="#fff"/>
<path d="m188.7 218.6h-5.3c-.6-9.4-2.4-20.7-5.6-33.9l-6.3-26.9c-3.8-16.1-5.7-27.6-5.7-34.6 0-14.1 6.7-21.1 20.1-21.1 5.9 0 10.8 1.9 14.6 5.8s5.8 8.9 5.8 14.9c0 6.4-2.1 18.1-6.1 35l-6.5 26.9c-2.2 9.4-3.9 20.8-5 33.9zm-2.5 17.7c6.3 0 11.1 2.1 14.5 6.4 3.5 4.2 5.2 8.8 5.2 13.6 0 6.4-2.1 11.4-6.3 14.8-4.1 3.5-8.6 5.2-13.4 5.2-6.3 0-11.2-2.1-14.6-6.3-3.4-4.3-5.1-8.8-5.1-13.7 0-5.6 1.9-10.4 5.7-14.2 3.8-3.9 8.4-5.8 14-5.8z"/>
</svg>
